<svg width="225" height="234" viewBox="0 0 225 234" fill="none" xmlns="http://www.w3.org/2000/svg">
<path d="M50.1975 24.8156C48.4871 23.8635 46.5682 23.3896 44.6288 23.4402C42.6894 23.4908 40.7958 24.0643 39.1334 25.1044C37.4711 26.1445 36.0969 27.6158 35.1453 29.374C34.1938 31.1323 33.6975 33.1174 33.705 35.135V198.83C33.6975 200.847 34.1938 202.832 35.1453 204.591C36.0969 206.349 37.4711 207.82 39.1334 208.86C40.7958 209.9 42.6894 210.474 44.6288 210.525C46.5682 210.575 48.4871 210.101 50.1975 209.149L196.628 127.296C198.416 126.291 199.909 124.802 200.95 122.986C201.991 121.171 202.54 119.096 202.54 116.982C202.54 114.869 201.991 112.794 200.95 110.978C199.909 109.163 198.416 107.674 196.628 106.669L50.1975 24.8156ZM22.5 35.135C22.5 17.4563 40.5563 6.15412 55.4738 14.4962L201.915 96.3494C217.699 105.171 217.699 128.794 201.915 137.615L55.4738 219.468C40.5563 227.799 22.5 216.52 22.5 198.83V35.135Z" fill="#5EBBAF"/>
</svg>
