<!-- <svg xmlns="http://www.w3.org/2000/svg"  viewBox="0 0 50 50" width="50px" height="50px"><path d="M 25 4 L 4 17.34375 L 4 32.652344 L 25 46 L 46 32.65625 L 46 17.34375 Z M 25 29.183594 L 19.066406 25.070313 L 25 21.023438 L 30.933594 25.070313 Z M 27 17.605469 L 27 9.949219 L 40.429688 18.484375 L 34.410156 22.65625 Z M 23 17.605469 L 15.589844 22.65625 L 9.570313 18.484375 L 23 9.949219 Z M 12.09375 25.042969 L 8 27.832031 L 8 22.203125 Z M 15.570313 27.453125 L 23 32.605469 L 23 40.050781 L 9.589844 31.527344 Z M 27 32.605469 L 34.429688 27.453125 L 40.410156 31.527344 L 27 40.050781 Z M 37.90625 25.042969 L 42 22.203125 L 42 27.832031 Z" fill="#CCD6F6"/></svg> -->

<svg xmlns="http://www.w3.org/2000/svg" role="img" viewBox="0 0 24 24" fill="none" stroke="#CCD6F6"  stroke-width="2" stroke-linecap="round" stroke-linejoin="round" class="feather feather-codepen"><title>CodePen</title><polygon points="12 2 22 8.5 22 15.5 12 22 2 15.5 2 8.5 12 2" ></polygon><line x1="12" y1="22" x2="12" y2="15.5"></line><polyline points="22 8.5 12 15.5 2 8.5"></polyline><polyline points="2 15.5 12 8.5 22 15.5"  ></polyline><line x1="12" y1="2" x2="12" y2="8.5"></line></svg>