<svg width="24" height="21" viewBox="0 0 24 21" fill="none" xmlns="http://www.w3.org/2000/svg">
<path d="M12.0092 6.95804H13.2186V12.6597C13.2186 13.1754 13.1165 13.6165 12.9123 13.983C12.7108 14.3495 12.4267 14.6296 12.0602 14.8233C11.6938 15.0144 11.2644 15.1099 10.7723 15.1099C10.3194 15.1099 9.91232 15.0275 9.55106 14.8626C9.19242 14.6976 8.90839 14.4581 8.69896 14.144C8.49215 13.8272 8.38875 13.4424 8.38875 12.9895H9.59426C9.59426 13.212 9.6453 13.4044 9.7474 13.5667C9.85211 13.729 9.99478 13.856 10.1754 13.9476C10.3587 14.0366 10.5681 14.0811 10.8037 14.0811C11.0602 14.0811 11.2775 14.0275 11.4555 13.9201C11.6362 13.8102 11.7736 13.6492 11.8678 13.4372C11.9621 13.2251 12.0092 12.966 12.0092 12.6597V6.95804Z" fill="#7cf1e2"/>
<path d="M2.2077 5.61911L12 0.672216L21.7923 5.61911V15.3809L12 20.3278L2.2077 15.3809V5.61911Z" stroke="#7cf1e2" stroke-width="1.2"/>
</svg>
