<svg width="30" height="29" viewBox="0 0 30 29" fill="none" xmlns="http://www.w3.org/2000/svg">
<path d="M16.7472 7.77841H18.0682V15.5767C18.0682 16.2727 17.9403 16.864 17.6847 17.3505C17.429 17.837 17.0685 18.2063 16.6033 18.4585C16.1381 18.7106 15.5895 18.8366 14.9574 18.8366C14.3608 18.8366 13.8299 18.7283 13.3647 18.5117C12.8995 18.2915 12.5337 17.979 12.2674 17.5742C12.0011 17.1694 11.8679 16.6882 11.8679 16.1307H13.1676C13.1676 16.4396 13.244 16.7095 13.3967 16.9403C13.5529 17.1676 13.766 17.3452 14.0359 17.473C14.3058 17.6009 14.6129 17.6648 14.9574 17.6648C15.3374 17.6648 15.6605 17.5849 15.9268 17.4251C16.1932 17.2653 16.3956 17.0309 16.5341 16.7219C16.6761 16.4094 16.7472 16.0277 16.7472 15.5767V7.77841Z" fill="#48AEA0"/>
<path d="M14.9943 1.34205L14.4326 0.30834L14.9943 1.34205C14.9978 1.34011 15.0022 1.34011 15.0057 1.34205L15.4089 0.600071L15.0057 1.34206L26.8076 7.75508L27.3693 6.72136L26.8076 7.75508C26.8115 7.75718 26.8139 7.76122 26.8139 7.76562V20.4697C26.8139 20.4741 26.8115 20.4781 26.8076 20.4802L15.0057 26.8932C15.0022 26.8952 14.9978 26.8952 14.9943 26.8932L3.19236 20.4802C3.1885 20.4781 3.18609 20.4741 3.18609 20.4697V7.76562C3.18609 7.76122 3.1885 7.75718 3.19236 7.75507L14.9943 1.34205Z" stroke="#48AEA0" stroke-width="2.35294"/>
</svg>
